<?xml version="1.0" encoding="utf-8"?>
<!-- Generated by IcoMoon.io -->
<!DOCTYPE svg PUBLIC "-//W3C//DTD SVG 1.1//EN" "http://www.w3.org/Graphics/SVG/1.1/DTD/svg11.dtd">
<svg version="1.1" xmlns="http://www.w3.org/2000/svg" xmlns:xlink="http://www.w3.org/1999/xlink" width="64" height="64" viewBox="0 0 64 64">
<path fill="#444444" d="M32 30.625q2.75 0 4.688-1.938t1.938-4.688-1.938-4.688-4.688-1.938-4.688 1.938-1.938 4.688 1.938 4.688 4.688 1.938zM32 5.375q7.75 0 13.188 5.438t5.438 13.188q0 3.875-1.938 8.875t-4.688 9.375-5.438 8.188-4.563 6.063l-2 2.125q-0.75-0.875-2-2.313t-4.5-5.75-5.688-8.375-4.438-9.188-2-9q0-7.75 5.438-13.188t13.188-5.438z"></path>
</svg>
